PathFileType	3	(X/Y/Z)	D:\VICON_DB\Goncalves\Pilot01\09-03-2026\bw_sq_140_02.trc
DataRate	CameraRate	NumFrames	NumMarkers	Units	OrigDataRate	OrigDataStartFrame	OrigNumFrames
200.0	200.0	13	34	mm	200.0	264	703	
Frame#	Time	LASI			RASI			LPSI			RPSI			LTHI			LTHAP			LTHAD			LKNE			LKNM			LTIB			LTIAP			LTIAD			LANK			LMED			LHEE			LTOE			LFMH			LSMH			LVMH			RTHI			RTHAP			RTHAD			RKNE			RKNM			RTIB			RTIAP			RTIAD			RANK			RMED			RHEE			RTOE			RFMH			RSMH			RVMH			
		X1	Y1	Z1	X2	Y2	Z2	X3	Y3	Z3	X4	Y4	Z4	X5	Y5	Z5	X6	Y6	Z6	X7	Y7	Z7	X8	Y8	Z8	X9	Y9	Z9	X10	Y10	Z10	X11	Y11	Z11	X12	Y12	Z12	X13	Y13	Z13	X14	Y14	Z14	X15	Y15	Z15	X16	Y16	Z16	X17	Y17	Z17	X18	Y18	Z18	X19	Y19	Z19	X20	Y20	Z20	X21	Y21	Z21	X22	Y22	Z22	X23	Y23	Z23	X24	Y24	Z24	X25	Y25	Z25	X26	Y26	Z26	X27	Y27	Z27	X28	Y28	Z28	X29	Y29	Z29	X30	Y30	Z30	X31	Y31	Z31	X32	Y32	Z32	X33	Y33	Z33	X34	Y34	Z34	
264	1.315	206.17906	529.8949	-1094.2902	199.76723	534.16156	-1361.3403				387.83255	607.93811	-1260.6306	221.50621	539.05511	-1007.0236	260.76483	545.0058	-1034.5604	224.7068	506.50824	-930.7738	132.09851	438.00812	-815.47644				185.45535	266.0347	-797.25409	79.212708	317.46872	-795.30939	148.08586	225.60866	-794.68616	259.55621	73.530823	-838.83899				271.83618	67.761841	-904.48779	184.86221	71.428627	-816.87073	124.43436	44.643982	-813.42334				173.33122	24.364838	-748.2395	204.68626	503.22235	-1521.6516	236.56934	554.63281	-1410.1897	174.4435	538.61401	-1452.0513	119.65788	435.07355	-1612.9707				150.4131	270.68747	-1643.0416	65.578484	296.86664	-1634.5308	106.76276	222.7646	-1619.2261	258.63364	65.587448	-1574.0638				265.48492	64.960556	-1520.3818	175.81189	69.647827	-1609.5697	120.19928	50.085587	-1612.6411				169.2356	19.542479	-1668.6582
265	1.32	206.25853	528.19135	-1094.317	199.82297	532.28979	-1361.3728				388.02402	605.89948	-1260.7405	221.76207	537.89893	-1007.3804	261.00775	543.56073	-1034.7668	224.89043	505.5737	-931.09894	132.01898	437.8287	-815.61407				185.33965	266.01855	-797.30823	79.04982	317.4238	-795.31976	147.99434	225.58116	-794.70996	259.54272	73.525841	-838.88678				271.8092	67.75901	-904.51453	184.84357	71.433632	-816.8844	124.43185	44.63718	-813.42883				173.33057	24.37248	-748.24817	204.87872	502.27237	-1521.4451	236.8	553.17432	-1410.0242	174.76305	537.44202	-1451.684	119.60735	434.78922	-1612.9906				150.30283	270.62601	-1643.1212	65.420227	296.76328	-1634.6801	106.66832	222.69617	-1619.3151	258.625	65.601524	-1574.056				265.4606	64.967087	-1520.373	175.80971	69.649513	-1609.5768	120.20155	50.084072	-1612.6479				169.23923	19.535866	-1668.6588
266	1.325	206.33896	526.50415	-1094.3387	199.87683	530.43762	-1361.3999				388.21854	603.87537	-1260.8475	222.01215	536.74866	-1007.7385	261.25635	542.13922	-1034.9738	225.06213	504.64349	-931.42828	131.9252	437.64923	-815.76691				185.21481	266.0032	-797.37305	78.878082	317.38019	-795.34711	147.89499	225.55392	-794.74512	259.52725	73.523621	-838.93536				271.78229	67.755707	-904.5423	184.82356	71.438614	-816.90143	124.42879	44.630028	-813.43616				173.32919	24.381811	-748.25842	205.05675	501.32578	-1521.2251	237.00365	551.71277	-1409.8568	175.07092	536.26965	-1451.3015	119.54336	434.50662	-1612.9893				150.18643	270.56888	-1643.183	65.256996	296.65866	-1634.8047	106.56956	222.62901	-1619.3879	258.61563	65.616455	-1574.0464				265.4364	64.972511	-1520.3628	175.80812	69.649635	-1609.5803	120.20391	50.08173	-1612.6526				169.24225	19.530643	-1668.6586
267	1.33	206.42041	524.83417	-1094.3573	199.92889	528.60553	-1361.4221				388.41537	601.86603	-1260.9526	222.25604	535.60242	-1008.0992	261.50949	540.74078	-1035.1816	225.22145	503.71796	-931.76215	131.81709	437.46976	-815.93439				185.08086	265.98859	-797.44849	78.697304	317.33789	-795.39056	147.78772	225.52693	-794.79095	259.50967	73.524132	-838.98486				271.75534	67.751976	-904.57117	184.80177	71.443459	-816.922	124.42521	44.622555	-813.44537				173.32712	24.392937	-748.27051	205.22055	500.38196	-1520.9929	237.17996	550.24634	-1409.6884	175.36754	535.09662	-1450.9049	119.46589	434.22546	-1612.9672				150.0638	270.51645	-1643.2269	65.088638	296.5528	-1634.906	106.46699	222.56323	-1619.4452	258.60516	65.632294	-1574.0355				265.41208	64.976929	-1520.3516	175.80667	69.648262	-1609.5803	120.20636	50.078445	-1612.6547				169.24464	19.526726	-1668.6577
268	1.335	206.50311	523.18158	-1094.3739	199.97943	526.79376	-1361.4402				388.6138	599.87177	-1261.0559	222.49326	534.45892	-1008.4635	261.76581	539.36475	-1035.3914	225.36807	502.79724	-932.10022	131.69487	437.29044	-816.11554				184.93777	265.9747	-797.53412	78.507271	317.29651	-795.44934	147.6725	225.50005	-794.84717	259.48999	73.527328	-839.03503				271.72809	67.747742	-904.6012	184.77783	71.448097	-816.94629	124.42107	44.614777	-813.4566				173.32437	24.405909	-748.28442	205.37057	499.4404	-1520.7494	237.32896	548.77344	-1409.5194	175.65338	533.92285	-1450.4955	119.37521	433.94547	-1612.9248				149.93491	270.46896	-1643.2546	64.914917	296.44583	-1634.9849	106.36119	222.49913	-1619.4865	258.59314	65.649101	-1574.0237				265.38748	64.980438	-1520.3387	175.80487	69.645531	-1609.5773	120.20873	50.07428	-1612.6552				169.24649	19.524012	-1668.656
269	1.34	206.58737	521.54694	-1094.3909	200.02898	525.00287	-1361.4546				388.81323	597.89264	-1261.1584	222.72316	533.31757	-1008.8322	262.0238	538.01044	-1035.6028	225.50174	501.88153	-932.44275	131.5589	437.11127	-816.30981				184.78584	265.9614	-797.62939	78.307838	317.25531	-795.52258	147.54944	225.47311	-794.91309	259.46802	73.533127	-839.08588				271.70053	67.742889	-904.63275	184.75151	71.452408	-816.97406	124.41646	44.606693	-813.46967				173.32106	24.42071	-748.30023	205.50737	498.50064	-1520.4955	237.45113	547.29291	-1409.3513	175.92905	532.74847	-1450.0745	119.27175	433.66638	-1612.8622				149.79974	270.42651	-1643.2665	64.735634	296.33786	-1635.0422	106.25278	222.43694	-1619.512	258.57928	65.666939	-1574.0118				265.36237	64.983055	-1520.3247	175.80226	69.641563	-1609.5719	120.21079	50.069359	-1612.6537				169.24776	19.52244	-1668.6534
270	1.345	206.67354	519.93066	-1094.4106	200.07822	523.23322	-1361.4663				389.01358	595.92853	-1261.2609	222.94505	532.1778	-1009.2052	262.28171	536.67676	-1035.8168	225.62238	500.97079	-932.78925	131.40967	436.9321	-816.51599				184.62535	265.94852	-797.73383	78.0989	317.21347	-795.6095	147.41867	225.446	-794.98816	259.44385	73.541359	-839.13708				271.67242	67.737244	-904.66559	184.72269	71.45636	-817.00513	124.41159	44.598221	-813.48431				173.31712	24.437277	-748.31793	205.6315	497.56226	-1520.2324	237.54759	545.80389	-1409.1854	176.19501	531.57361	-1449.6432	119.1559	433.38806	-1612.7803				149.65849	270.38928	-1643.2632	64.550522	296.22934	-1635.0795	106.14235	222.37682	-1619.5217	258.56311	65.685852	-1574.0004				265.33658	64.984802	-1520.3093	175.79846	69.636269	-1609.5645	120.21231	50.063763	-1612.6512				169.24838	19.52198	-1668.6501
271	1.35	206.76178	518.33313	-1094.4351	200.12813	521.48505	-1361.4757				389.215	593.97876	-1261.3636	223.15823	531.03979	-1009.5828	262.53778	535.36298	-1036.0336	225.72993	500.06509	-933.13965	131.24783	436.75269	-816.73328				184.45679	265.93585	-797.84692	77.880646	317.17004	-795.70941	147.28053	225.41841	-795.07153	259.41748	73.55191	-839.18842				271.64374	67.730621	-904.69989	184.69148	71.459969	-817.03925	124.40671	44.589279	-813.50012				173.31258	24.455492	-748.33752	205.7435	496.62527	-1519.9611	237.6203	544.30695	-1409.0228	176.45178	530.39874	-1449.2034	119.02786	433.11072	-1612.6796				149.51126	270.35706	-1643.2458	64.359314	296.12048	-1635.098	106.03039	222.31888	-1619.5159	258.54413	65.705894	-1573.99				265.31	64.985603	-1520.2925	175.79326	69.629433	-1609.5549	120.2131	50.057484	-1612.6473				169.24832	19.522642	-1668.646
272	1.355	206.85216	516.7547	-1094.4664	200.17973	519.75861	-1361.4834				389.41757	592.04285	-1261.467	223.36206	529.90356	-1009.9644	262.79016	534.06757	-1036.2529	225.82446	499.16434	-933.49323	131.07396	436.5726	-816.96075				184.28058	265.92319	-797.96771	77.653496	317.12427	-795.82153	147.1353	225.39012	-795.16272	259.38876	73.564705	-839.2395				271.61426	67.722824	-904.7356	184.65817	71.463379	-817.07581	124.40201	44.579742	-813.5166				173.30731	24.475212	-748.35876	205.84392	495.68997	-1519.6815	237.67195	542.80328	-1408.8651	176.69971	529.22437	-1448.7563	118.8878	432.83484	-1612.5615				149.35832	270.3295	-1643.2148	64.161858	296.0119	-1635.0983	105.91719	222.26312	-1619.4945	258.52179	65.727097	-1573.9813				265.2825	64.985435	-1520.2745	175.78651	69.620674	-1609.5432	120.21297	50.050526	-1612.6426				169.24757	19.524454	-1668.6409
273	1.36	206.94467	515.19574	-1094.5065	200.23425	518.05402	-1361.4897				389.6217	590.12036	-1261.5719	223.55586	528.76984	-1010.3492	263.03738	532.78961	-1036.4753	225.90602	498.26855	-933.84937	130.88861	436.39154	-817.19739				184.0972	265.91025	-798.09583	77.418251	317.07565	-795.94501	146.98346	225.36096	-795.26099	259.35779	73.579742	-839.29004				271.58392	67.713737	-904.77277	184.62315	71.466812	-817.11432	124.39752	44.569519	-813.53357				173.30128	24.496279	-748.38165	205.93327	494.75693	-1519.3951	237.70605	541.29572	-1408.7137	176.93916	528.05133	-1448.3036	118.73602	432.56088	-1612.4268				149.19989	270.30627	-1643.1705	63.958057	295.90405	-1635.0814	105.80281	222.2095	-1619.458	258.49576	65.749489	-1573.9749				265.25418	64.984222	-1520.255	175.77795	69.609779	-1609.5294	120.21173	50.042923	-1612.6371				169.24605	19.527441	-1668.6348
274	1.365	207.03929	513.65662	-1094.5565	200.29291	516.3714	-1361.4951				389.82822	588.21033	-1261.6783	223.73907	527.63953	-1010.7365	263.27802	531.52759	-1036.7003	225.97467	497.37762	-934.20758	130.69221	436.20892	-817.44232				183.9071	265.89679	-798.23047	77.175911	317.02371	-796.07861	146.82544	225.33078	-795.36566	259.32431	73.597038	-839.33972				271.55258	67.703224	-904.81146	184.58699	71.470627	-817.15436	124.39322	44.558502	-813.5506				173.29434	24.518547	-748.40607	206.01213	493.82687	-1519.1018	237.72658	539.78766	-1408.5704	177.17055	526.88031	-1447.8463	118.57303	432.28934	-1612.2758				149.03625	270.28693	-1643.1133	63.747795	295.79755	-1635.048	105.68702	222.15782	-1619.4069	258.46539	65.773087	-1573.9712				265.22491	64.98188	-1520.2341	175.76729	69.596687	-1609.5138	120.20922	50.034729	-1612.6309				169.24371	19.531679	-1668.6274
275	1.37	207.13594	512.13794	-1094.618	200.35706	514.71075	-1361.4996				390.03806	586.31195	-1261.7866	223.91133	526.51343	-1011.1251	263.51068	530.2804	-1036.928	226.03053	496.49161	-934.56671	130.48518	436.02448	-817.69482				183.71065	265.88263	-798.37122	76.92733	316.96805	-796.2218	146.66159	225.2995	-795.47632	259.28827	73.616577	-839.38861				271.52023	67.691208	-904.85168	184.5502	71.475227	-817.19531	124.38896	44.546635	-813.56757				173.28636	24.541903	-748.43176	206.08112	492.90036	-1518.8022	237.73785	538.28375	-1408.4364	177.39439	525.71265	-1447.3853	118.39966	432.02039	-1612.1084				148.8678	270.27094	-1643.0432	63.531002	295.69315	-1634.9991	105.56941	222.10797	-1619.3416	258.4303	65.797829	-1573.9705				265.1947	64.97834	-1520.2117	175.75417	69.581512	-1609.4963	120.20528	50.026085	-1612.624				169.24048	19.537321	-1668.6191
276	1.375	207.23468	510.6402	-1094.6918	200.42776	513.07233	-1361.5037				390.25223	584.4245	-1261.8967	224.07237	525.39282	-1011.5137	263.73444	529.04681	-1037.1576	226.07376	495.61041	-934.92627	130.26776	435.83792	-817.95416				183.50816	265.86755	-798.51776	76.672874	316.90775	-796.37402	146.49232	225.26707	-795.59247	259.24963	73.638321	-839.43671				271.4866	67.677582	-904.89362	184.51312	71.480972	-817.23682	124.3845	44.533901	-813.58472				173.27731	24.566277	-748.45868	206.14102	491.97812	-1518.4966	237.74391	536.78894	-1408.3127	177.6113	524.5495	-1446.9218	118.21683	431.75421	-1611.9246				148.69485	270.2579	-1642.9604	63.307613	295.59149	-1634.9353	105.44939	222.05983	-1619.2635	258.39026	65.8237	-1573.9729				265.16364	64.973587	-1520.188	175.73846	69.564293	-1609.4774	120.19977	50.017128	-1612.6171				169.23621	19.544607	-1668.6097
